<svg width="109" height="86" viewBox="0 0 109 86" fill="none" xmlns="http://www.w3.org/2000/svg">
<g opacity="0.9">
<g filter="url(#filter0_dd_2001_505)">
<path d="M8.23753 24.2171C8.35455 23.1576 9.24985 22.3557 10.3158 22.3557H102.233C103.479 22.3557 104.448 23.4381 104.311 24.6762L98.3351 78.7782C98.2181 79.8377 97.3228 80.6396 96.2569 80.6396H4.33981C3.09416 80.6396 2.1248 79.5572 2.26156 78.3191L8.23753 24.2171Z" fill="#343B50"/>
<path d="M102.233 21.3098C104.043 21.3098 105.464 22.8338 105.365 24.6175L105.35 24.7913L99.3744 78.8929C99.1989 80.482 97.856 81.6847 96.2572 81.6848H4.34021C2.47176 81.6848 1.01697 80.0615 1.22205 78.2044L7.19861 24.1018L7.24451 23.8089C7.54259 22.3673 8.81687 21.3098 10.3158 21.3098H102.233Z" stroke="black" stroke-width="2.09089"/>
</g>
<mask id="mask0_2001_505" style="mask-type:alpha" maskUnits="userSpaceOnUse" x="2" y="22" width="103" height="59">
<path d="M8.23586 24.2169C8.35297 23.1575 9.24823 22.3557 10.3141 22.3557H102.231C103.477 22.3557 104.446 23.4382 104.309 24.6764L98.3289 78.7784C98.2118 79.8378 97.3166 80.6396 96.2507 80.6396H4.33366C3.08794 80.6396 2.11856 79.5571 2.25542 78.3189L8.23586 24.2169Z" fill="#343B50"/>
</mask>
<g mask="url(#mask0_2001_505)">
<rect x="0.886108" y="9.76239" width="112.777" height="15.8202" fill="#5E5576"/>
<rect x="0.952515" y="74.5675" width="112.777" height="17.2657" fill="#272C3D"/>
<path d="M110.199 35.8061L97.8503 20.6527H110.199V35.8061Z" fill="#766C92"/>
</g>
<g filter="url(#filter1_d_2001_505)">
<circle cx="12.3434" cy="12.0164" r="10.6701" fill="#00CE18" stroke="black" stroke-width="1.30681"/>
<path d="M10.282 15.4279C10.282 15.4279 10.4976 18.0612 13.1832 17.9323C15.8688 17.8034 15.5607 15.1049 15.5607 15.1049" stroke="#00772B" stroke-width="1.56817" stroke-linecap="round" stroke-linejoin="round"/>
<circle cx="7.62057" cy="11.4653" r="2.85617" fill="#00772B"/>
<circle cx="17.2634" cy="10.2644" r="2.85617" fill="#00772B"/>
</g>
</g>
<defs>
<filter id="filter0_dd_2001_505" x="0.157593" y="3.92974" width="108.348" height="82.0677" filterUnits="userSpaceOnUse" color-interpolation-filters="sRGB">
<feFlood flood-opacity="0" result="BackgroundImageFix"/>
<feColorMatrix in="SourceAlpha" type="matrix" values="0 0 0 0 0 0 0 0 0 0 0 0 0 0 0 0 0 0 127 0" result="hardAlpha"/>
<feOffset dy="3.26702"/>
<feComposite in2="hardAlpha" operator="out"/>
<feColorMatrix type="matrix" values="0 0 0 0 0 0 0 0 0 0 0 0 0 0 0 0 0 0 0.5 0"/>
<feBlend mode="normal" in2="BackgroundImageFix" result="effect1_dropShadow_2001_505"/>
<feColorMatrix in="SourceAlpha" type="matrix" values="0 0 0 0 0 0 0 0 0 0 0 0 0 0 0 0 0 0 127 0" result="hardAlpha"/>
<feOffset dx="2.09089" dy="-16.3351"/>
<feComposite in2="hardAlpha" operator="out"/>
<feColorMatrix type="matrix" values="0 0 0 0 0 0 0 0 0 0 0 0 0 0 0 0 0 0 1 0"/>
<feBlend mode="normal" in2="effect1_dropShadow_2001_505" result="effect2_dropShadow_2001_505"/>
<feBlend mode="normal" in="SourceGraphic" in2="effect2_dropShadow_2001_505" result="shape"/>
</filter>
<filter id="filter1_d_2001_505" x="1.0199" y="0.692856" width="22.6471" height="23.9539" filterUnits="userSpaceOnUse" color-interpolation-filters="sRGB">
<feFlood flood-opacity="0" result="BackgroundImageFix"/>
<feColorMatrix in="SourceAlpha" type="matrix" values="0 0 0 0 0 0 0 0 0 0 0 0 0 0 0 0 0 0 127 0" result="hardAlpha"/>
<feOffset dy="1.30681"/>
<feComposite in2="hardAlpha" operator="out"/>
<feColorMatrix type="matrix" values="0 0 0 0 0 0 0 0 0 0 0 0 0 0 0 0 0 0 0.5 0"/>
<feBlend mode="normal" in2="BackgroundImageFix" result="effect1_dropShadow_2001_505"/>
<feBlend mode="normal" in="SourceGraphic" in2="effect1_dropShadow_2001_505" result="shape"/>
</filter>
</defs>
</svg>
