<svg width="25" height="26" viewBox="0 0 25 26" fill="none" xmlns="http://www.w3.org/2000/svg">
<g filter="url(#filter0_d_2001_488)">
<path d="M2.02515 6.38735C2.02515 4.16497 3.82674 2.36337 6.04912 2.36337H18.7633C20.9857 2.36337 22.7873 4.16497 22.7873 6.38735V18.1881C22.7873 20.4105 20.9857 22.2121 18.7633 22.2121H6.04912C3.82674 22.2121 2.02515 20.4105 2.02515 18.1881V6.38735Z" fill="#0C6787"/>
<path d="M18.7634 1.57919C21.4188 1.57927 23.571 3.73242 23.571 6.38779V18.1886C23.5708 20.8437 21.4186 22.9961 18.7634 22.9962H6.04956C3.39429 22.9962 1.24121 20.8438 1.24097 18.1886V6.38779L1.2478 6.13974C1.37668 3.5994 3.4772 1.57919 6.04956 1.57919H18.7634Z" stroke="black" stroke-width="1.56817"/>
</g>
<path d="M2.05298 5.85888C2.05298 3.92809 3.84959 2.36288 6.06582 2.36288H18.7448C20.961 2.36288 22.7576 3.92809 22.7576 5.85888V15.8427C22.7576 17.7735 20.9441 19.6073 18.7278 19.6073H6.09117C3.87494 19.6073 2.05298 17.7819 2.05298 15.8512L2.05298 5.85888Z" fill="#00CE18"/>
<path fill-rule="evenodd" clip-rule="evenodd" d="M14.7701 9.74222C14.7701 9.74297 14.7701 9.74373 14.7701 9.74448C14.7701 9.74473 14.7701 9.74485 14.7701 9.74485L14.7701 9.74469L14.7701 9.74389C14.7701 9.74413 14.7701 9.74433 14.7701 9.74448C14.7685 10.1043 14.4764 10.3955 14.1162 10.3955C13.755 10.3955 13.4623 10.1027 13.4623 9.74161L14.1162 9.74162C13.4623 9.74161 13.4623 9.74128 13.4623 9.74095L13.4623 9.74021L13.4623 9.73854L13.4623 9.73441L13.4624 9.723C13.4626 9.71403 13.4629 9.70232 13.4633 9.68807C13.4643 9.65958 13.466 9.62078 13.4694 9.57313C13.4761 9.47806 13.4893 9.34646 13.5151 9.19024C13.5661 8.88091 13.6694 8.45835 13.8825 8.02777C14.0968 7.59478 14.4289 7.14093 14.9402 6.79663C15.4559 6.44937 16.1146 6.24019 16.9351 6.24019C17.7557 6.24019 18.4144 6.44937 18.9301 6.79663C19.4414 7.14093 19.7734 7.59478 19.9878 8.02777C20.2009 8.45835 20.3042 8.88091 20.3552 9.19024C20.381 9.34646 20.3941 9.47806 20.4009 9.57313C20.4042 9.62078 20.406 9.65958 20.407 9.68807C20.4074 9.70232 20.4077 9.71403 20.4078 9.723L20.408 9.73441L20.408 9.73854L20.408 9.74021L20.408 9.74095C20.408 9.74128 20.408 9.74161 19.7541 9.74162L20.408 9.74161C20.408 10.1027 20.1152 10.3955 19.7541 10.3955C19.3939 10.3955 19.1018 10.1043 19.1002 9.7445C19.1002 9.74392 19.1002 9.74335 19.1002 9.74277L19.1002 9.74365M19.1002 9.74277V9.74276ZM19.1002 9.7445L19.1002 9.74389L19.0999 9.73121C19.0994 9.71798 19.0985 9.6956 19.0963 9.66539C19.092 9.60474 19.0832 9.51387 19.0649 9.40314C19.0278 9.17856 18.9549 8.88923 18.8157 8.60793C18.6776 8.32904 18.4812 8.07101 18.1996 7.88139C17.9224 7.69474 17.5241 7.54798 16.9351 7.54798C16.3462 7.54798 15.9478 7.69474 15.6707 7.88139C15.3891 8.07101 15.1926 8.32904 15.0546 8.60793C14.9153 8.88923 14.8425 9.17856 14.8054 9.40314C14.7871 9.51387 14.7782 9.60474 14.7739 9.66539C14.7718 9.6956 14.7708 9.71798 14.7704 9.73121L14.7701 9.74389L14.7701 9.74365L14.7701 9.74276L14.7701 9.74222" fill="#0C6787"/>
<path fill-rule="evenodd" clip-rule="evenodd" d="M5.71429 9.7403C5.71428 9.74105 5.71428 9.7418 5.71428 9.74255C5.71428 9.7428 5.71427 9.74293 5.71427 9.74293L5.71428 9.74277L5.71429 9.74197C5.71428 9.74221 5.71428 9.7424 5.71428 9.74255C5.71274 10.1024 5.42057 10.3936 5.06039 10.3936C4.69925 10.3936 4.40649 10.1008 4.40649 9.73969L5.06039 9.73969C4.40649 9.73969 4.40649 9.73936 4.40649 9.73902L4.4065 9.73829L4.4065 9.73662L4.40653 9.73249L4.40666 9.72108C4.40681 9.71211 4.40707 9.7004 4.40754 9.68614C4.40848 9.65765 4.41026 9.61886 4.41363 9.57121C4.42035 9.47614 4.43349 9.34454 4.45927 9.18831C4.5103 8.87899 4.6136 8.45643 4.82673 8.02585C5.04106 7.59286 5.37314 7.139 5.8844 6.79471C6.40007 6.44744 7.05883 6.23827 7.87935 6.23827C8.69987 6.23827 9.35863 6.44744 9.87431 6.79471C10.3856 7.139 10.7177 7.59286 10.932 8.02585C11.1451 8.45643 11.2484 8.87899 11.2994 9.18831C11.3252 9.34454 11.3384 9.47614 11.3451 9.57121C11.3484 9.61886 11.3502 9.65765 11.3512 9.68614C11.3516 9.7004 11.3519 9.71211 11.352 9.72108L11.3522 9.73249L11.3522 9.73662L11.3522 9.73829L11.3522 9.73902C11.3522 9.73936 11.3522 9.73969 10.6983 9.73969L11.3522 9.73969C11.3522 10.1008 11.0595 10.3936 10.6983 10.3936C10.3381 10.3936 10.046 10.1024 10.0444 9.74258C10.0444 9.742 10.0444 9.74142 10.0444 9.74085L10.0444 9.74173M10.0444 9.74085V9.74084ZM10.0444 9.74258L10.0444 9.74197L10.0441 9.72928C10.0437 9.71606 10.0427 9.69368 10.0405 9.66346C10.0363 9.60281 10.0274 9.51195 10.0091 9.40122C9.97204 9.17663 9.89915 8.88731 9.75991 8.60601C9.62186 8.32711 9.42539 8.06908 9.14381 7.87947C8.86666 7.69282 8.46831 7.54606 7.87935 7.54606C7.2904 7.54606 6.89205 7.69282 6.6149 7.87947C6.33332 8.06908 6.13685 8.32711 5.9988 8.60601C5.85956 8.88731 5.78667 9.17663 5.74961 9.40122C5.73134 9.51195 5.72245 9.60281 5.71816 9.66346C5.71603 9.69368 5.71505 9.71606 5.71462 9.72928L5.71429 9.74197L5.71428 9.74173L5.71428 9.74084L5.71429 9.7403" fill="#0C6787"/>
<path d="M8.51587 11.9205H16.2991V13.3511C16.2991 15.299 14.5568 16.8781 12.4075 16.8781Lnan nanLnan nanL12.4075 16.8781C10.2582 16.8781 8.51587 15.299 8.51587 13.3511V11.9205Z" fill="#0C6787"/>
<defs>
<filter id="filter0_d_2001_488" x="0.457031" y="0.795197" width="23.8984" height="24.2919" filterUnits="userSpaceOnUse" color-interpolation-filters="sRGB">
<feFlood flood-opacity="0" result="BackgroundImageFix"/>
<feColorMatrix in="SourceAlpha" type="matrix" values="0 0 0 0 0 0 0 0 0 0 0 0 0 0 0 0 0 0 127 0" result="hardAlpha"/>
<feOffset dy="1.30681"/>
<feComposite in2="hardAlpha" operator="out"/>
<feColorMatrix type="matrix" values="0 0 0 0 0 0 0 0 0 0 0 0 0 0 0 0 0 0 0.5 0"/>
<feBlend mode="normal" in2="BackgroundImageFix" result="effect1_dropShadow_2001_488"/>
<feBlend mode="normal" in="SourceGraphic" in2="effect1_dropShadow_2001_488" result="shape"/>
</filter>
</defs>
</svg>
