<svg width="61" height="37" viewBox="0 0 61 37" fill="none" xmlns="http://www.w3.org/2000/svg">
<g filter="url(#filter0_d_2001_516)">
<path d="M20.0292 6.39107C20.0292 4.16869 21.8308 2.3671 24.0531 2.3671H36.7673C38.9897 2.3671 40.7913 4.16869 40.7913 6.39107V18.1918C40.7913 20.4142 38.9897 22.2158 36.7673 22.2158H24.0531C21.8308 22.2158 20.0292 20.4142 20.0292 18.1918V6.39107Z" fill="#0C6787"/>
<path d="M36.7675 1.58292C39.4228 1.58299 41.5751 3.73614 41.5751 6.39151V18.1923C41.5748 20.8475 39.4227 22.9998 36.7675 22.9999H24.0536C21.3983 22.9999 19.2452 20.8475 19.245 18.1923V6.39151L19.2518 6.14346C19.3807 3.60313 21.4812 1.58292 24.0536 1.58292H36.7675Z" stroke="black" stroke-width="1.56817"/>
</g>
<path d="M20.0573 5.86245C20.0573 3.93166 21.8539 2.36646 24.0701 2.36646H36.7491C38.9653 2.36646 40.7619 3.93166 40.7619 5.86245V15.8462C40.7619 17.777 38.9484 19.6108 36.7321 19.6108H24.0954C21.8792 19.6108 20.0573 17.7855 20.0573 15.8547L20.0573 5.86245Z" fill="#00CE18"/>
<path fill-rule="evenodd" clip-rule="evenodd" d="M32.7726 9.74565C32.7726 9.74641 32.7726 9.74716 32.7726 9.74791C32.7726 9.74816 32.7726 9.74829 32.7726 9.74829L32.7726 9.74813L32.7726 9.74732C32.7726 9.74756 32.7726 9.74776 32.7726 9.74791C32.7711 10.1077 32.4789 10.3989 32.1187 10.3989C31.7576 10.3989 31.4648 10.1062 31.4648 9.74505L32.1187 9.74505C31.4648 9.74505 31.4648 9.74472 31.4648 9.74438L31.4648 9.74365L31.4649 9.74198L31.4649 9.73784L31.465 9.72644C31.4652 9.71746 31.4654 9.70576 31.4659 9.6915C31.4668 9.66301 31.4686 9.62421 31.472 9.57657C31.4787 9.48149 31.4918 9.3499 31.5176 9.19367C31.5687 8.88434 31.672 8.46178 31.8851 8.0312C32.0994 7.59821 32.4315 7.14436 32.9427 6.80007C33.4584 6.4528 34.1172 6.24362 34.9377 6.24362C35.7582 6.24362 36.417 6.4528 36.9327 6.80007C37.4439 7.14436 37.776 7.59821 37.9903 8.0312C38.2035 8.46178 38.3068 8.88434 38.3578 9.19367C38.3836 9.3499 38.3967 9.48149 38.4034 9.57657C38.4068 9.62421 38.4086 9.66301 38.4095 9.6915C38.41 9.70576 38.4103 9.71746 38.4104 9.72644L38.4105 9.73784L38.4106 9.74198L38.4106 9.74365L38.4106 9.74438C38.4106 9.74472 38.4106 9.74505 37.7567 9.74505L38.4106 9.74505C38.4106 10.1062 38.1178 10.3989 37.7567 10.3989C37.3965 10.3989 37.1043 10.1077 37.1028 9.74793C37.1028 9.74736 37.1028 9.74678 37.1028 9.7462L37.1028 9.74708M37.1028 9.7462V9.74619ZM37.1028 9.74793L37.1028 9.74732L37.1024 9.73464C37.102 9.72142 37.101 9.69904 37.0989 9.66882C37.0946 9.60817 37.0857 9.51731 37.0674 9.40658C37.0304 9.18199 36.9575 8.89267 36.8183 8.61136C36.6802 8.33247 36.4837 8.07444 36.2022 7.88482C35.925 7.69818 35.5267 7.55141 34.9377 7.55141C34.3487 7.55141 33.9504 7.69818 33.6732 7.88482C33.3917 8.07444 33.1952 8.33247 33.0571 8.61136C32.9179 8.89267 32.845 9.18199 32.808 9.40658C32.7897 9.51731 32.7808 9.60817 32.7765 9.66882C32.7744 9.69904 32.7734 9.72142 32.773 9.73464L32.7726 9.74732L32.7726 9.74708L32.7726 9.74619L32.7726 9.74565" fill="#0C6787"/>
<path fill-rule="evenodd" clip-rule="evenodd" d="M23.7168 9.74373C23.7168 9.74448 23.7168 9.74524 23.7168 9.74599C23.7168 9.74624 23.7168 9.74636 23.7168 9.74636L23.7168 9.7462L23.7169 9.7454C23.7168 9.74564 23.7168 9.74584 23.7168 9.74599C23.7153 10.1058 23.4231 10.397 23.0629 10.397C22.7018 10.397 22.4091 10.1043 22.4091 9.74312L23.063 9.74313C22.4091 9.74312 22.4091 9.7428 22.4091 9.74246L22.4091 9.74172L22.4091 9.74006L22.4091 9.73592L22.4092 9.72451C22.4094 9.71554 22.4096 9.70383 22.4101 9.68958C22.411 9.66109 22.4128 9.62229 22.4162 9.57465C22.4229 9.47957 22.4361 9.34797 22.4618 9.19175C22.5129 8.88242 22.6162 8.45986 22.8293 8.02928C23.0436 7.59629 23.3757 7.14244 23.887 6.79815C24.4026 6.45088 25.0614 6.2417 25.8819 6.2417C26.7024 6.2417 27.3612 6.45088 27.8769 6.79815C28.3881 7.14244 28.7202 7.59629 28.9345 8.02928C29.1477 8.45986 29.251 8.88242 29.302 9.19175C29.3278 9.34797 29.3409 9.47957 29.3476 9.57465C29.351 9.62229 29.3528 9.66109 29.3537 9.68958C29.3542 9.70383 29.3545 9.71554 29.3546 9.72451L29.3547 9.73592L29.3548 9.74006L29.3548 9.74172L29.3548 9.74246C29.3548 9.7428 29.3548 9.74312 28.7009 9.74313L29.3548 9.74312C29.3548 10.1043 29.062 10.397 28.7009 10.397C28.3407 10.397 28.0485 10.1058 28.047 9.74601C28.047 9.74543 28.047 9.74486 28.047 9.74428L28.047 9.74516M28.047 9.74428V9.74427ZM28.047 9.74601L28.047 9.7454L28.0467 9.73272C28.0462 9.7195 28.0452 9.69711 28.0431 9.6669C28.0388 9.60625 28.0299 9.51538 28.0117 9.40465C27.9746 9.18007 27.9017 8.89074 27.7625 8.60944C27.6244 8.33055 27.428 8.07252 27.1464 7.8829C26.8692 7.69625 26.4709 7.54949 25.8819 7.54949C25.293 7.54949 24.8946 7.69625 24.6175 7.8829C24.3359 8.07252 24.1394 8.33055 24.0014 8.60944C23.8621 8.89074 23.7892 9.18007 23.7522 9.40465C23.7339 9.51538 23.725 9.60625 23.7207 9.6669C23.7186 9.69711 23.7176 9.7195 23.7172 9.73272L23.7169 9.7454L23.7168 9.74516L23.7168 9.74427L23.7168 9.74373" fill="#0C6787"/>
<path d="M26.5183 11.9239H34.3016V13.3545C34.3016 15.3024 32.5592 16.8815 30.4099 16.8815Lnan nanLnan nanL30.4099 16.8815C28.2607 16.8815 26.5183 15.3024 26.5183 13.3545V11.9239Z" fill="#0C6787"/>
<g filter="url(#filter1_d_2001_516)">
<path d="M38.6791 12.7276C39.3458 10.6076 41.605 9.42947 43.725 10.0962L55.8534 13.9107C57.9734 14.5774 59.1515 16.8366 58.4848 18.9566L54.9443 30.2137C54.2776 32.3337 52.0185 33.5118 49.8985 32.8451L37.77 29.0306C35.65 28.3638 34.4719 26.1047 35.1387 23.9847L38.6791 12.7276Z" fill="#093493"/>
<path d="M56.0888 13.1627C58.6218 13.9594 60.029 16.6591 59.2323 19.1921L55.6919 30.4493C54.8951 32.9821 52.1963 34.3896 49.6634 33.5931L37.5352 29.7787C35.0022 28.9821 33.5941 26.2829 34.3905 23.7499L37.9309 12.4927L38.0118 12.2581C38.8969 9.8735 41.5068 8.57655 43.9606 9.3483L56.0888 13.1627Z" stroke="black" stroke-width="1.56817"/>
</g>
<path d="M55.8369 13.905C57.9511 14.5699 59.1952 16.602 58.6159 18.4439L55.6207 27.9674C55.0414 29.8092 52.7616 31.0145 50.6475 30.3497L38.593 26.5585C36.4788 25.8936 35.2884 23.606 35.8677 21.7642L38.8655 12.2323C39.4448 10.3905 41.6281 9.43622 43.7423 10.1011L55.8369 13.905ZM54.9654 18.9091C54.9653 17.3136 53.6717 16.0198 52.0761 16.0196C50.4803 16.0196 49.1863 17.3139 49.1863 18.9097C49.1865 20.5053 50.4801 21.7984 52.0758 21.7984C53.6715 21.7983 54.9654 20.5049 54.9654 18.9091ZM46.5402 16.2399C46.5402 14.6441 45.2458 13.3501 43.65 13.3501C42.0544 13.3503 40.7614 14.6439 40.7614 16.2396C40.7614 17.8354 42.0548 19.1292 43.6506 19.1292C45.2462 19.129 46.54 17.8355 46.5402 16.2399Z" fill="#0087FA"/>
<path d="M42.8801 20.2275L50.3048 22.5626L49.8756 23.9273C49.2912 25.7855 47.1554 26.7692 45.1051 26.1243Lnan nanLnan nanL45.1051 26.1243C43.0548 25.4795 41.8665 23.4504 42.4509 21.5922L42.8801 20.2275Z" fill="#093494"/>
<g filter="url(#filter2_d_2001_516)">
<path d="M1.97318 19.4386C1.35454 17.3041 2.58341 15.0722 4.71795 14.4535L16.9296 10.9143C19.0641 10.2956 21.296 11.5245 21.9146 13.6591L25.1996 24.9934C25.8183 27.1279 24.5894 29.3598 22.4548 29.9785L10.2432 33.5177C8.10868 34.1363 5.87679 32.9075 5.25815 30.7729L1.97318 19.4386Z" fill="#CD6E22"/>
<path d="M16.7114 10.1611C19.2618 9.42197 21.9284 10.8909 22.6676 13.4413L25.9526 24.7756C26.6914 27.3259 25.2235 29.9923 22.6733 30.7315L10.4619 34.2707C7.9116 35.0098 5.24445 33.5418 4.50509 30.9917L1.22012 19.6573L1.15763 19.4172C0.574268 16.9414 2.02939 14.4163 4.50008 13.7002L16.7114 10.1611Z" stroke="black" stroke-width="1.56817"/>
</g>
<path d="M1.85428 18.9226C1.31681 17.0681 2.6067 15.0646 4.73533 14.4477L16.9132 10.9183C19.0418 10.3013 21.2031 11.3045 21.7406 13.159L24.5197 22.7482C25.0572 24.6027 23.8258 26.8688 21.6972 27.4858L9.55999 31.0034C7.43136 31.6204 5.17329 30.3743 4.63582 28.5199L1.85428 18.9226Z" fill="#FFB820"/>
<path fill-rule="evenodd" clip-rule="evenodd" d="M14.9751 18.8523C14.9753 18.853 14.9755 18.8537 14.9757 18.8544C14.9758 18.8547 14.9758 18.8548 14.9758 18.8548L14.9758 18.8546L14.9756 18.8539C14.9756 18.8541 14.9757 18.8543 14.9757 18.8544C15.0744 19.2005 14.8748 19.5615 14.5289 19.6617C14.182 19.7623 13.8194 19.5626 13.7188 19.2157L14.3469 19.0337C13.7188 19.2157 13.7187 19.2154 13.7186 19.2151L13.7184 19.2144L13.718 19.2128L13.7169 19.2088L13.7138 19.1978C13.7115 19.1891 13.7084 19.1778 13.7049 19.164C13.6979 19.1364 13.6888 19.0986 13.6788 19.0519C13.6588 18.9587 13.6348 18.8287 13.616 18.6714C13.5789 18.3601 13.5605 17.9255 13.6454 17.4526C13.7307 16.9771 13.9233 16.4487 14.3185 15.9757C14.7172 15.4986 15.2916 15.1144 16.0797 14.886C16.8678 14.6575 17.5588 14.6751 18.1507 14.8651C18.7376 15.0534 19.1829 15.3969 19.5093 15.7531C19.8339 16.1074 20.0507 16.4845 20.1858 16.7674C20.2541 16.9102 20.3033 17.033 20.3363 17.1224C20.3528 17.1672 20.3653 17.204 20.3741 17.2311C20.3785 17.2447 20.382 17.2558 20.3847 17.2644L20.388 17.2753L20.3892 17.2793L20.3896 17.2809L20.3898 17.2816C20.3899 17.2819 20.39 17.2822 19.762 17.4643L20.39 17.2822C20.4905 17.6291 20.2909 17.9918 19.944 18.0923C19.5981 18.1926 19.2364 17.9942 19.1347 17.6491C19.1346 17.6485 19.1344 17.648 19.1342 17.6474L19.1345 17.6482M19.1342 17.6474L19.1342 17.6474ZM19.1347 17.6491L19.1345 17.6485L19.1307 17.6364C19.1266 17.6238 19.1194 17.6026 19.109 17.5742C19.088 17.5171 19.0541 17.4323 19.0058 17.331C18.9077 17.1256 18.7571 16.868 18.5451 16.6366C18.3348 16.4072 18.0743 16.214 17.7511 16.1103C17.4329 16.0082 17.0095 15.9781 16.4438 16.1421C15.8781 16.306 15.5364 16.5579 15.3221 16.8143C15.1045 17.0748 14.9876 17.3773 14.9326 17.6836C14.8772 17.9925 14.8877 18.2907 14.9146 18.5167C14.9279 18.6282 14.9447 18.7179 14.9574 18.7774C14.9638 18.807 14.9691 18.8288 14.9724 18.8416L14.9756 18.8539L14.9755 18.8536L14.9752 18.8528L14.9751 18.8523" fill="#9B2424"/>
<path fill-rule="evenodd" clip-rule="evenodd" d="M6.27661 21.3708C6.27682 21.3715 6.27703 21.3722 6.27723 21.373C6.2773 21.3732 6.27733 21.3733 6.27733 21.3733L6.27729 21.3732L6.27708 21.3724C6.27714 21.3726 6.27719 21.3728 6.27723 21.373C6.37592 21.719 6.17636 22.08 5.83042 22.1803C5.48355 22.2808 5.12087 22.0811 5.02034 21.7343L5.64839 21.5522C5.02034 21.7343 5.02025 21.7339 5.02016 21.7336L5.01995 21.7329L5.0195 21.7313L5.01837 21.7273L5.01533 21.7163C5.01296 21.7077 5.00996 21.6964 5.00644 21.6825C4.99941 21.6549 4.99032 21.6172 4.9803 21.5705C4.96029 21.4773 4.93627 21.3472 4.91754 21.19C4.88046 20.8787 4.86205 20.4441 4.94689 19.9712C5.03221 19.4956 5.22483 18.9673 5.62004 18.4943C6.01866 18.0172 6.59316 17.6329 7.38125 17.4045C8.16934 17.1761 8.86029 17.1936 9.45225 17.3836C10.0391 17.572 10.4844 17.9154 10.8108 18.2717C11.1354 18.6259 11.3522 19.003 11.4874 19.2859C11.5556 19.4288 11.6049 19.5515 11.6378 19.641C11.6543 19.6858 11.6668 19.7225 11.6756 19.7496C11.68 19.7632 11.6835 19.7744 11.6862 19.783L11.6895 19.7939L11.6907 19.7978L11.6911 19.7994L11.6913 19.8001C11.6914 19.8005 11.6915 19.8008 11.0635 19.9828L11.6915 19.8008C11.7921 20.1476 11.5924 20.5103 11.2455 20.6109C10.8996 20.7111 10.5379 20.5128 10.4362 20.1676C10.4361 20.1671 10.4359 20.1665 10.4358 20.1659L10.436 20.1668M10.4358 20.1659L10.4357 20.1659ZM10.4362 20.1676L10.4361 20.167L10.4322 20.1549C10.4281 20.1424 10.4209 20.1211 10.4105 20.0927C10.3895 20.0356 10.3557 19.9508 10.3073 19.8496C10.2092 19.6442 10.0586 19.3866 9.84658 19.1552C9.63635 18.9257 9.37582 18.7326 9.05259 18.6288C8.73443 18.5267 8.31097 18.4966 7.7453 18.6606C7.17962 18.8245 6.83787 19.0764 6.62363 19.3328C6.40597 19.5933 6.28908 19.8958 6.23413 20.2021C6.1787 20.5111 6.18923 20.8093 6.21615 21.0353C6.22943 21.1467 6.24618 21.2365 6.25895 21.2959C6.26531 21.3255 6.2706 21.3473 6.27387 21.3601L6.27708 21.3724L6.27701 21.3722L6.27676 21.3713L6.27661 21.3708" fill="#9B2424"/>
<path d="M9.81653 22.4135L17.2921 20.2469L17.6904 21.621C18.2326 23.4919 16.9987 25.4936 14.9344 26.0919Lnan nanLnan nanL14.9344 26.0919C12.8701 26.6902 10.757 25.6585 10.2148 23.7876L9.81653 22.4135Z" fill="#9B2424"/>
<defs>
<filter id="filter0_d_2001_516" x="18.4611" y="0.79892" width="23.8984" height="24.2919" filterUnits="userSpaceOnUse" color-interpolation-filters="sRGB">
<feFlood flood-opacity="0" result="BackgroundImageFix"/>
<feColorMatrix in="SourceAlpha" type="matrix" values="0 0 0 0 0 0 0 0 0 0 0 0 0 0 0 0 0 0 127 0" result="hardAlpha"/>
<feOffset dy="1.30681"/>
<feComposite in2="hardAlpha" operator="out"/>
<feColorMatrix type="matrix" values="0 0 0 0 0 0 0 0 0 0 0 0 0 0 0 0 0 0 0.5 0"/>
<feBlend mode="normal" in2="BackgroundImageFix" result="effect1_dropShadow_2001_516"/>
<feBlend mode="normal" in="SourceGraphic" in2="effect1_dropShadow_2001_516" result="shape"/>
</filter>
<filter id="filter1_d_2001_516" x="33.3837" y="8.34119" width="26.8561" height="27.5657" filterUnits="userSpaceOnUse" color-interpolation-filters="sRGB">
<feFlood flood-opacity="0" result="BackgroundImageFix"/>
<feColorMatrix in="SourceAlpha" type="matrix" values="0 0 0 0 0 0 0 0 0 0 0 0 0 0 0 0 0 0 127 0" result="hardAlpha"/>
<feOffset dy="1.30681"/>
<feComposite in2="hardAlpha" operator="out"/>
<feColorMatrix type="matrix" values="0 0 0 0 0 0 0 0 0 0 0 0 0 0 0 0 0 0 0.5 0"/>
<feBlend mode="normal" in2="BackgroundImageFix" result="effect1_dropShadow_2001_516"/>
<feBlend mode="normal" in="SourceGraphic" in2="effect1_dropShadow_2001_516" result="shape"/>
</filter>
<filter id="filter2_d_2001_516" x="0.244507" y="9.18561" width="26.6838" height="27.3676" filterUnits="userSpaceOnUse" color-interpolation-filters="sRGB">
<feFlood flood-opacity="0" result="BackgroundImageFix"/>
<feColorMatrix in="SourceAlpha" type="matrix" values="0 0 0 0 0 0 0 0 0 0 0 0 0 0 0 0 0 0 127 0" result="hardAlpha"/>
<feOffset dy="1.30681"/>
<feComposite in2="hardAlpha" operator="out"/>
<feColorMatrix type="matrix" values="0 0 0 0 0 0 0 0 0 0 0 0 0 0 0 0 0 0 0.5 0"/>
<feBlend mode="normal" in2="BackgroundImageFix" result="effect1_dropShadow_2001_516"/>
<feBlend mode="normal" in="SourceGraphic" in2="effect1_dropShadow_2001_516" result="shape"/>
</filter>
</defs>
</svg>
