<svg width="78" height="57" viewBox="0 0 78 57" fill="none" xmlns="http://www.w3.org/2000/svg">
<g filter="url(#filter0_d_2001_436)">
<path d="M4.94222 15.8712C5.03348 14.7555 5.96564 13.8964 7.08512 13.8964H73.5967C74.8533 13.8964 75.8421 14.9694 75.7396 16.2218L72.9876 49.868C72.8964 50.9837 71.9642 51.8428 70.8447 51.8428H4.33311C3.07654 51.8428 2.08776 50.7698 2.1902 49.5174L4.94222 15.8712Z" fill="#343B50"/>
<path d="M73.5967 13.2246C75.1943 13.2246 76.4624 14.5461 76.418 16.123L76.4092 16.2763L73.6572 49.9228C73.5374 51.3872 72.314 52.5146 70.8447 52.5146H4.33301C2.68388 52.5145 1.38618 51.1065 1.52051 49.4628L4.27246 15.8164C4.39228 14.352 5.61574 13.2246 7.08496 13.2246H73.5967Z" stroke="black" stroke-width="1.34379"/>
</g>
<mask id="mask0_2001_436" style="mask-type:alpha" maskUnits="userSpaceOnUse" x="2" y="13" width="74" height="39">
<path d="M4.94222 15.8712C5.03348 14.7555 5.96564 13.8964 7.08512 13.8964H73.5967C74.8533 13.8964 75.8421 14.9694 75.7396 16.2218L72.9876 49.868C72.8964 50.9837 71.9642 51.8428 70.8447 51.8428H4.33311C3.07654 51.8428 2.08776 50.7698 2.1902 49.5174L4.94222 15.8712Z" fill="#343B50"/>
</mask>
<g mask="url(#mask0_2001_436)">
<rect x="-0.462891" y="5.69704" width="83.0958" height="11.0371" fill="#5E5576"/>
<rect x="-0.414673" y="48.0935" width="83.0958" height="11.0371" fill="#272C3D"/>
<path d="M78.2784 23.3892L69.1798 13.5234H78.2784V23.3892Z" fill="#766C92"/>
</g>
<defs>
<filter id="filter0_d_2001_436" x="0.838989" y="12.5526" width="76.2518" height="43.9934" filterUnits="userSpaceOnUse" color-interpolation-filters="sRGB">
<feFlood flood-opacity="0" result="BackgroundImageFix"/>
<feColorMatrix in="SourceAlpha" type="matrix" values="0 0 0 0 0 0 0 0 0 0 0 0 0 0 0 0 0 0 127 0" result="hardAlpha"/>
<feOffset dy="3.35948"/>
<feComposite in2="hardAlpha" operator="out"/>
<feColorMatrix type="matrix" values="0 0 0 0 0 0 0 0 0 0 0 0 0 0 0 0 0 0 0.5 0"/>
<feBlend mode="normal" in2="BackgroundImageFix" result="effect1_dropShadow_2001_436"/>
<feBlend mode="normal" in="SourceGraphic" in2="effect1_dropShadow_2001_436" result="shape"/>
</filter>
</defs>
</svg>
