<svg width="73" height="55" viewBox="0 0 73 55" fill="none" xmlns="http://www.w3.org/2000/svg">
<g filter="url(#filter0_dd_0_1175)">
<path d="M4.35003 4.10829C4.45697 2.70024 5.63065 1.6123 7.04277 1.6123H68.8196C70.3916 1.6123 71.6314 2.94979 71.5124 4.5173L68.3029 46.7771C68.1959 48.1851 67.0223 49.2731 65.6101 49.2731H3.83328C2.26126 49.2731 1.0215 47.9356 1.14055 46.3681L4.35003 4.10829Z" fill="#E6311F"/>
<path d="M68.8193 1.10645C70.6277 1.10645 72.0657 2.59643 72.0254 4.38184L72.0176 4.55566L68.8076 46.8154C68.6806 48.4874 67.2871 49.7792 65.6104 49.7793H3.83301C1.96647 49.7791 0.494585 48.1913 0.635742 46.3301L3.84473 4.07031L3.88379 3.76074C4.14785 2.24127 5.47103 1.10645 7.04297 1.10645H68.8193Z" stroke="black" stroke-width="1.01268"/>
</g>
<mask id="mask0_0_1175" style="mask-type:alpha" maskUnits="userSpaceOnUse" x="1" y="1" width="71" height="49">
<path d="M4.35003 4.10829C4.45697 2.70024 5.63065 1.6123 7.04277 1.6123H68.8196C70.3916 1.6123 71.6314 2.94979 71.5124 4.5173L68.3029 46.7771C68.1959 48.1851 67.0223 49.2731 65.6101 49.2731H3.83328C2.26126 49.2731 1.0215 47.9356 1.14055 46.3681L4.35003 4.10829Z" fill="#343B50"/>
</mask>
<g mask="url(#mask0_0_1175)">
<rect x="-1.41711" y="-8.68628" width="78.8338" height="13.8626" fill="#FF7B7B"/>
<rect x="-1.37073" y="44.564" width="78.8338" height="13.8626" fill="#CD0034"/>
</g>
<path d="M33.6318 11.0969C33.7662 11.0994 33.8941 11.1553 33.9873 11.2522L40.4785 18.0002L47.709 12.26L47.7939 12.2053C47.883 12.16 47.9843 12.1422 48.085 12.1545C48.2195 12.1711 48.3421 12.2405 48.4248 12.3479L54.0527 19.6663C54.2141 19.8764 54.1858 20.1751 53.9883 20.3518L47.9424 25.76L53.7363 31.7825C53.833 31.883 53.8839 32.0191 53.877 32.1584C53.87 32.2977 53.8063 32.4283 53.7002 32.5188L45.3125 39.6682C45.1075 39.8429 44.8014 39.8257 44.6162 39.6301L39.0322 33.7307L33.1611 38.9846C32.9566 39.1674 32.6433 39.1539 32.4551 38.9543L24.9697 31.0168C24.8725 30.9137 24.8228 30.7744 24.833 30.6331C24.8433 30.4918 24.9125 30.3617 25.0234 30.2737L31.1514 25.4055L25.4971 19.4319C25.3063 19.2301 25.3138 18.9118 25.5137 18.719L33.2715 11.2385L33.3496 11.176C33.4331 11.1226 33.5313 11.0951 33.6318 11.0969Z" fill="black" stroke="black" stroke-width="1.01268" stroke-linejoin="round"/>
<path d="M24.8624 19.0389V17.1085C24.8624 17.0153 24.938 16.9397 25.0312 16.9397H26.5001C26.5933 16.9397 26.6689 17.0153 26.6689 17.1085V19.0389C26.6689 19.1321 26.5933 19.2077 26.5001 19.2077H25.0312C24.938 19.2077 24.8624 19.1321 24.8624 19.0389Z" fill="black"/>
<path d="M24.3267 30.6361V28.587C24.3267 28.4938 24.4022 28.4182 24.4954 28.4182H25.9644C26.0576 28.4182 26.1331 28.4938 26.1331 28.587V30.6361C26.1331 30.7293 26.0576 30.8049 25.9644 30.8049H24.4954C24.4022 30.8049 24.3267 30.7293 24.3267 30.6361Z" fill="black"/>
<path d="M52.8595 19.9225V17.8734C52.8595 17.7802 52.9351 17.7046 53.0283 17.7046H54.4972C54.5904 17.7046 54.666 17.7802 54.666 17.8734V19.9225C54.666 20.0157 54.5904 20.0913 54.4972 20.0913H53.0283C52.9351 20.0913 52.8595 20.0157 52.8595 19.9225Z" fill="black"/>
<path d="M52.5719 32.1339V30.0848C52.5719 29.9916 52.6475 29.916 52.7407 29.916H54.2096C54.3028 29.916 54.3784 29.9916 54.3784 30.0848V32.1339C54.3784 32.2271 54.3028 32.3027 54.2096 32.3027H52.7407C52.6475 32.3027 52.5719 32.2271 52.5719 32.1339Z" fill="black"/>
<mask id="path-11-outside-1_0_1175" maskUnits="userSpaceOnUse" x="23.3379" y="7.49414" width="32" height="31" fill="black">
<rect fill="white" x="23.3379" y="7.49414" width="32" height="31"/>
<path d="M40.4326 16.5742L48.0234 10.5479L53.6504 17.8662L47.2139 23.623L53.3711 30.0244L44.9834 37.1738L39.0605 30.917L32.8232 36.498L25.3379 28.5615L31.8994 23.3506L25.8652 16.9756L33.6221 9.49414L40.4326 16.5742Z"/>
</mask>
<path d="M40.4326 16.5742L48.0234 10.5479L53.6504 17.8662L47.2139 23.623L53.3711 30.0244L44.9834 37.1738L39.0605 30.917L32.8232 36.498L25.3379 28.5615L31.8994 23.3506L25.8652 16.9756L33.6221 9.49414L40.4326 16.5742Z" fill="white"/>
<path d="M40.4326 16.5742L39.7028 17.2763C40.0647 17.6525 40.6534 17.692 41.0623 17.3673L40.4326 16.5742ZM48.0234 10.5479L48.8263 9.93058C48.6609 9.7155 48.4161 9.57577 48.1468 9.54271C47.8775 9.50965 47.6063 9.58603 47.3938 9.75472L48.0234 10.5479ZM53.6504 17.8662L54.3255 18.621C54.7207 18.2676 54.7764 17.6692 54.4532 17.2489L53.6504 17.8662ZM47.2139 23.623L46.5388 22.8682C46.3338 23.0515 46.2122 23.3103 46.2019 23.585C46.1916 23.8598 46.2934 24.1269 46.484 24.3251L47.2139 23.623ZM53.3711 30.0244L54.028 30.7951C54.2405 30.614 54.3687 30.3533 54.3825 30.0745C54.3963 29.7957 54.2945 29.5236 54.101 29.3224L53.3711 30.0244ZM44.9834 37.1738L44.248 37.87C44.6184 38.2613 45.2303 38.294 45.6403 37.9445L44.9834 37.1738ZM39.0605 30.917L39.796 30.2208C39.4191 29.8227 38.7938 29.7968 38.3853 30.1623L39.0605 30.917ZM32.8232 36.498L32.0865 37.1929C32.4632 37.5922 33.0894 37.6188 33.4985 37.2527L32.8232 36.498ZM25.3379 28.5615L24.7081 27.7685C24.4861 27.9448 24.3481 28.2061 24.3278 28.4889C24.3075 28.7717 24.4066 29.0501 24.6012 29.2564L25.3379 28.5615ZM31.8994 23.3506L32.5292 24.1436C32.7515 23.9671 32.8895 23.7054 32.9096 23.4223C32.9296 23.1391 32.83 22.8606 32.6349 22.6544L31.8994 23.3506ZM25.8652 16.9756L25.1622 16.2467C24.7623 16.6324 24.7478 17.2682 25.1298 17.6717L25.8652 16.9756ZM33.6221 9.49414L34.3519 8.79209C34.1655 8.59836 33.9098 8.48667 33.641 8.48163C33.3723 8.4766 33.1125 8.57863 32.9191 8.76524L33.6221 9.49414ZM40.4326 16.5742L41.0623 17.3673L48.6531 11.341L48.0234 10.5479L47.3938 9.75472L39.803 15.7811L40.4326 16.5742ZM48.0234 10.5479L47.2206 11.1651L52.8476 18.4835L53.6504 17.8662L54.4532 17.2489L48.8263 9.93058L48.0234 10.5479ZM53.6504 17.8662L52.9753 17.1114L46.5388 22.8682L47.2139 23.623L47.889 24.3779L54.3255 18.621L53.6504 17.8662ZM47.2139 23.623L46.484 24.3251L52.6412 30.7264L53.3711 30.0244L54.101 29.3224L47.9437 22.921L47.2139 23.623ZM53.3711 30.0244L52.7142 29.2537L44.3265 36.4031L44.9834 37.1738L45.6403 37.9445L54.028 30.7951L53.3711 30.0244ZM44.9834 37.1738L45.7188 36.4776L39.796 30.2208L39.0605 30.917L38.3251 31.6132L44.248 37.87L44.9834 37.1738ZM39.0605 30.917L38.3853 30.1623L32.148 35.7434L32.8232 36.498L33.4985 37.2527L39.7358 31.6717L39.0605 30.917ZM32.8232 36.498L33.56 35.8032L26.0746 27.8667L25.3379 28.5615L24.6012 29.2564L32.0865 37.1929L32.8232 36.498ZM25.3379 28.5615L25.9677 29.3545L32.5292 24.1436L31.8994 23.3506L31.2696 22.5576L24.7081 27.7685L25.3379 28.5615ZM31.8994 23.3506L32.6349 22.6544L26.6007 16.2794L25.8652 16.9756L25.1298 17.6717L31.1639 24.0467L31.8994 23.3506ZM25.8652 16.9756L26.5683 17.7045L34.3251 10.223L33.6221 9.49414L32.9191 8.76524L25.1622 16.2467L25.8652 16.9756ZM33.6221 9.49414L32.8922 10.1962L39.7028 17.2763L40.4326 16.5742L41.1624 15.8722L34.3519 8.79209L33.6221 9.49414Z" fill="black" mask="url(#path-11-outside-1_0_1175)"/>
<defs>
<filter id="filter0_dd_0_1175" x="0.119873" y="0.599609" width="72.7506" height="53.9056" filterUnits="userSpaceOnUse" color-interpolation-filters="sRGB">
<feFlood flood-opacity="0" result="BackgroundImageFix"/>
<feColorMatrix in="SourceAlpha" type="matrix" values="0 0 0 0 0 0 0 0 0 0 0 0 0 0 0 0 0 0 127 0" result="hardAlpha"/>
<feOffset dx="0.337561" dy="4.21952"/>
<feComposite in2="hardAlpha" operator="out"/>
<feColorMatrix type="matrix" values="0 0 0 0 0 0 0 0 0 0 0 0 0 0 0 0 0 0 0.5 0"/>
<feBlend mode="normal" in2="BackgroundImageFix" result="effect1_dropShadow_0_1175"/>
<feColorMatrix in="SourceAlpha" type="matrix" values="0 0 0 0 0 0 0 0 0 0 0 0 0 0 0 0 0 0 127 0" result="hardAlpha"/>
<feOffset dy="1.01268"/>
<feComposite in2="hardAlpha" operator="out"/>
<feColorMatrix type="matrix" values="0 0 0 0 0 0 0 0 0 0 0 0 0 0 0 0 0 0 1 0"/>
<feBlend mode="normal" in2="effect1_dropShadow_0_1175" result="effect2_dropShadow_0_1175"/>
<feBlend mode="normal" in="SourceGraphic" in2="effect2_dropShadow_0_1175" result="shape"/>
</filter>
</defs>
</svg>
