<svg width="25" height="26" viewBox="0 0 25 26" fill="none" xmlns="http://www.w3.org/2000/svg">
<g filter="url(#filter0_d_0_545)">
<g filter="url(#filter1_d_0_545)">
<path d="M23.5508 12.3187C23.5508 18.7345 18.3497 23.9355 11.934 23.9355C5.51816 23.9355 0.317139 18.7345 0.317139 12.3187C0.317139 5.90292 5.51816 0.701889 11.934 0.701889C18.3497 0.701889 23.5508 5.90292 23.5508 12.3187Z" fill="#FDBD1F"/>
<path fill-rule="evenodd" clip-rule="evenodd" d="M11.934 23.1963C17.9415 23.1963 22.8115 18.3262 22.8115 12.3187C22.8115 6.31119 17.9415 1.44114 11.934 1.44114C5.92644 1.44114 1.05639 6.31119 1.05639 12.3187C1.05639 18.3262 5.92644 23.1963 11.934 23.1963ZM11.934 23.9355C18.3497 23.9355 23.5508 18.7345 23.5508 12.3187C23.5508 5.90292 18.3497 0.701889 11.934 0.701889C5.51816 0.701889 0.317139 5.90292 0.317139 12.3187C0.317139 18.7345 5.51816 23.9355 11.934 23.9355Z" fill="black"/>
<path opacity="0.3" d="M13.6564 3.26787C15.6603 5.12076 14.9478 9.15032 12.0649 12.2682C9.18205 15.386 5.22054 16.4114 3.21664 14.5585C1.21274 12.7057 1.92528 8.67609 4.80815 5.55826C7.69102 2.44043 11.6525 1.41499 13.6564 3.26787Z" fill="white"/>
<path opacity="0.3" d="M20.7111 13.8285C21.8016 14.9085 21.3234 17.1593 19.6431 18.8559C17.9628 20.5525 15.7167 21.0524 14.6262 19.9725C13.5358 18.8925 14.0139 16.6416 15.6942 14.945C17.3745 13.2484 19.6207 12.7486 20.7111 13.8285Z" fill="white"/>
<path opacity="0.8" d="M4.33591 5.15985C4.37424 4.98972 4.59058 4.93671 4.70321 5.06985L5.65048 6.1896L7.08129 6.51192C7.25143 6.55025 7.30444 6.76659 7.17129 6.87923L6.05155 7.82649L5.72922 9.2573C5.6909 9.42744 5.47456 9.48045 5.36192 9.3473L4.41466 8.22756L2.98384 7.90523C2.81371 7.86691 2.7607 7.65057 2.89384 7.53793L4.01358 6.59067L4.33591 5.15985Z" fill="white"/>
<path d="M18.6299 13.0715V12.1186H17.5449V13.0715H18.6299Z" fill="black"/>
<path d="M4.87496 10.8732L15.0245 3.8793C15.3216 3.67454 15.7221 3.91256 15.6843 4.27143L15.0365 10.4155C15.0191 10.581 15.1003 10.7412 15.2441 10.8249L18.422 12.6747C18.6821 12.8262 18.7049 13.1933 18.4655 13.3758L10.0368 19.8002C9.41375 20.275 8.53594 19.7198 8.69804 18.9534L9.75609 13.9511L4.92971 11.6009C4.63892 11.4593 4.60863 11.0568 4.87496 10.8732Z" fill="black"/>
<path d="M5.75189 10.591L15.0214 4.1427L14.252 10.078L18.4288 12.1297L9.30585 18.688L10.4783 12.7892L5.75189 10.591Z" fill="white"/>
<path fill-rule="evenodd" clip-rule="evenodd" d="M15.1288 3.96186C15.2002 4.00525 15.2393 4.08666 15.2286 4.16953L14.4786 9.95476L18.5196 11.9398C18.5863 11.9725 18.6308 12.0378 18.637 12.1118C18.6432 12.1858 18.6101 12.2576 18.5498 12.3009L9.42685 18.8591C9.35642 18.9098 9.26219 18.9122 9.18926 18.8652C9.11632 18.8183 9.07949 18.7315 9.0964 18.6465L10.2365 12.9104L5.66054 10.7822C5.59198 10.7503 5.54569 10.6842 5.53918 10.6089C5.53267 10.5336 5.56692 10.4605 5.62899 10.4173L14.8985 3.96899C14.9671 3.92127 15.0574 3.91848 15.1288 3.96186ZM10.476 12.7889L9.30356 18.6876L18.4265 12.1294L14.2497 10.0776L15.0191 4.14238L5.74961 10.5907L10.476 12.7889Z" fill="black"/>
<mask id="mask0_0_545" style="mask-type:alpha" maskUnits="userSpaceOnUse" x="5" y="4" width="14" height="15">
<path d="M5.75098 10.592L15.0205 4.14365L14.2511 10.0789L18.4279 12.1306L9.30493 18.6889L10.4774 12.7901L5.75098 10.592Z" fill="white"/>
</mask>
<g mask="url(#mask0_0_545)">
<path d="M15.4659 3.6852L7.68091 11.6837L10.2676 12.9361L9.01452 19.2319L18.6785 12.174L14.0694 11.347L15.4659 3.6852Z" fill="white"/>
</g>
</g>
</g>
<defs>
<filter id="filter0_d_0_545" x="0.31665" y="0.0186615" width="23.917" height="25.2835" filterUnits="userSpaceOnUse" color-interpolation-filters="sRGB">
<feFlood flood-opacity="0" result="BackgroundImageFix"/>
<feColorMatrix in="SourceAlpha" type="matrix" values="0 0 0 0 0 0 0 0 0 0 0 0 0 0 0 0 0 0 127 0" result="hardAlpha"/>
<feOffset dy="1.36668"/>
<feComposite in2="hardAlpha" operator="out"/>
<feColorMatrix type="matrix" values="0 0 0 0 0 0 0 0 0 0 0 0 0 0 0 0 0 0 0.5 0"/>
<feBlend mode="normal" in2="BackgroundImageFix" result="effect1_dropShadow_0_545"/>
<feBlend mode="normal" in="SourceGraphic" in2="effect1_dropShadow_0_545" result="shape"/>
</filter>
<filter id="filter1_d_0_545" x="0.31665" y="0.701889" width="23.2341" height="24.6003" filterUnits="userSpaceOnUse" color-interpolation-filters="sRGB">
<feFlood flood-opacity="0" result="BackgroundImageFix"/>
<feColorMatrix in="SourceAlpha" type="matrix" values="0 0 0 0 0 0 0 0 0 0 0 0 0 0 0 0 0 0 127 0" result="hardAlpha"/>
<feOffset dy="1.36668"/>
<feComposite in2="hardAlpha" operator="out"/>
<feColorMatrix type="matrix" values="0 0 0 0 0 0 0 0 0 0 0 0 0 0 0 0 0 0 0.5 0"/>
<feBlend mode="normal" in2="BackgroundImageFix" result="effect1_dropShadow_0_545"/>
<feBlend mode="normal" in="SourceGraphic" in2="effect1_dropShadow_0_545" result="shape"/>
</filter>
</defs>
</svg>
