<svg width="135" height="74" viewBox="0 0 135 74" fill="none" xmlns="http://www.w3.org/2000/svg">
<mask id="path-1-outside-1_2001_421" maskUnits="userSpaceOnUse" x="-0.00172424" y="0.000183105" width="135" height="70" fill="black">
<rect fill="white" x="-0.00172424" y="0.000183105" width="135" height="70"/>
<path d="M121.897 2.00018C122.893 2.00027 123.677 2.85043 123.597 3.84296L122.098 22.2639C122.835 22.9652 123.255 23.9884 123.139 25.09L122.023 35.674L132.379 43.4016C133.8 44.4623 133.736 46.6124 132.255 47.5871L119.913 55.7053L118.913 65.1955C118.73 66.9306 117.267 68.2482 115.522 68.2482H5.40803C3.38372 68.2481 1.8053 66.4938 2.01741 64.4807L6.243 24.3762C6.42583 22.641 7.88984 21.3234 9.6346 21.3234H27.4451L28.8885 3.56659C28.9606 2.68183 29.7 2.00032 30.5877 2.00018H121.897Z"/>
</mask>
<path d="M121.897 2.00018L121.897 0.806823H121.897V2.00018ZM123.597 3.84296L124.786 3.93969L124.786 3.9394L123.597 3.84296ZM122.098 22.2639L120.909 22.1671C120.88 22.5262 121.014 22.8793 121.275 23.1278L122.098 22.2639ZM123.139 25.09L124.326 25.2152L124.326 25.215L123.139 25.09ZM122.023 35.674L120.836 35.5489C120.792 35.9676 120.972 36.3786 121.31 36.6304L122.023 35.674ZM132.379 43.4016L133.092 42.4452L133.092 42.4451L132.379 43.4016ZM132.255 47.5871L132.911 48.5841L132.911 48.5841L132.255 47.5871ZM119.913 55.7053L119.257 54.7083C118.958 54.9047 118.764 55.2247 118.726 55.5802L119.913 55.7053ZM118.913 65.1955L120.1 65.3206L120.1 65.3205L118.913 65.1955ZM115.522 68.2482L115.522 69.4416L115.522 69.4416L115.522 68.2482ZM5.40803 68.2482L5.40796 69.4416H5.40803V68.2482ZM2.01741 64.4807L0.830619 64.3556L0.830619 64.3556L2.01741 64.4807ZM6.243 24.3762L5.05621 24.2511L5.05621 24.2511L6.243 24.3762ZM9.6346 21.3234L9.6346 22.5168H9.6346V21.3234ZM27.4451 21.3234V22.5168C28.0667 22.5168 28.5842 22.0397 28.6346 21.4201L27.4451 21.3234ZM28.8885 3.56659L27.6991 3.4696L27.6991 3.46991L28.8885 3.56659ZM30.5877 2.00018L30.5877 0.806823L30.5875 0.806824L30.5877 2.00018ZM121.897 2.00018L121.897 3.19354C122.196 3.19357 122.431 3.44872 122.407 3.74651L123.597 3.84296L124.786 3.9394C124.923 2.25214 123.59 0.806968 121.897 0.806823L121.897 2.00018ZM123.597 3.84296L122.407 3.74623L120.909 22.1671L122.098 22.2639L123.288 22.3606L124.786 3.93969L123.597 3.84296ZM122.098 22.2639L121.275 23.1278C121.757 23.5869 122.028 24.2502 121.953 24.9651L123.139 25.09L124.326 25.215C124.483 23.7266 123.912 22.3435 122.922 21.3999L122.098 22.2639ZM123.139 25.09L121.953 24.9649L120.836 35.5489L122.023 35.674L123.21 35.7992L124.326 25.2152L123.139 25.09ZM122.023 35.674L121.31 36.6304L131.665 44.358L132.379 43.4016L133.092 42.4451L122.737 34.7176L122.023 35.674ZM132.379 43.4016L131.665 44.3579C132.423 44.9237 132.389 46.0703 131.599 46.5901L132.255 47.5871L132.911 48.5841C135.084 47.1545 135.177 44.0009 133.092 42.4452L132.379 43.4016ZM132.255 47.5871L131.599 46.5901L119.257 54.7083L119.913 55.7053L120.569 56.7023L132.911 48.5841L132.255 47.5871ZM119.913 55.7053L118.726 55.5802L117.726 65.0704L118.913 65.1955L120.1 65.3205L121.1 55.8303L119.913 55.7053ZM118.913 65.1955L117.726 65.0704C117.607 66.1986 116.656 67.0549 115.522 67.0549L115.522 68.2482L115.522 69.4416C117.878 69.4416 119.853 67.6627 120.1 65.3206L118.913 65.1955ZM115.522 68.2482V67.0549H5.40803V68.2482V69.4416H115.522V68.2482ZM5.40803 68.2482L5.40811 67.0549C4.09262 67.0548 3.0663 65.9146 3.2042 64.6057L2.01741 64.4807L0.830619 64.3556C0.544308 67.0731 2.67483 69.4414 5.40796 69.4416L5.40803 68.2482ZM2.01741 64.4807L3.2042 64.6057L7.42979 24.5012L6.243 24.3762L5.05621 24.2511L0.830619 64.3556L2.01741 64.4807ZM6.243 24.3762L7.42978 24.5012C7.54861 23.3735 8.50038 22.5168 9.6346 22.5168L9.6346 21.3234L9.6346 20.1301C7.27931 20.1301 5.30305 21.9085 5.05621 24.2511L6.243 24.3762ZM9.6346 21.3234V22.5168H27.4451V21.3234V20.1301H9.6346V21.3234ZM27.4451 21.3234L28.6346 21.4201L30.0779 3.66327L28.8885 3.56659L27.6991 3.46991L26.2557 21.2267L27.4451 21.3234ZM28.8885 3.56659L30.0779 3.66357C30.0995 3.39828 30.3215 3.19358 30.5879 3.19354L30.5877 2.00018L30.5875 0.806824C29.0785 0.807053 27.8217 1.96538 27.6991 3.4696L28.8885 3.56659ZM30.5877 2.00018V3.19354H121.897V2.00018V0.806823H30.5877V2.00018Z" fill="black" fill-opacity="0.33" mask="url(#path-1-outside-1_2001_421)"/>
<path opacity="0.3" d="M9.41702 29.508C9.59138 27.765 11.058 26.4378 12.8097 26.4378L117.004 26.4379C119.021 26.4379 120.597 28.1796 120.397 30.1868L116.385 70.2921C116.21 72.035 114.744 73.3623 112.992 73.3623L8.79778 73.3622C6.78054 73.3622 5.20432 71.6204 5.40511 69.6132L9.41702 29.508Z" fill="black"/>
<path d="M28.8888 3.56704C28.9607 2.68199 29.7 2.00037 30.588 2.00037H121.897C122.893 2.00037 123.677 2.85056 123.596 3.84329L122.027 23.1543C121.955 24.0393 121.215 24.721 120.327 24.721H29.0183C28.0223 24.721 27.2384 23.8708 27.3191 22.878L28.8888 3.56704Z" fill="#21C326"/>
<path d="M119.749 21.3234C121.773 21.3236 123.351 23.077 123.139 25.09L122.023 35.674L132.379 43.4015C133.8 44.4622 133.736 46.6123 132.255 47.5871L119.913 55.7052L118.913 65.1954C118.73 66.9306 117.267 68.2482 115.522 68.2482H5.40802C3.3837 68.2481 1.80526 66.4938 2.0174 64.4806L6.24298 24.3761C6.42582 22.641 7.88983 21.3234 9.63459 21.3234H119.749Z" fill="white"/>
</svg>
