<svg width="45" height="35" viewBox="0 0 45 35" fill="none" xmlns="http://www.w3.org/2000/svg">
<path d="M23.457 34.1094C23.0416 34.3488 22.5302 34.3488 22.1148 34.1094L11.706 28.1093C11.2898 27.8694 11.0333 27.4255 11.0333 26.9451L11.0333 10.9289C11.0333 10.1867 11.6349 9.58508 12.3771 9.58508L33.1947 9.58508C33.9368 9.58508 34.5385 10.1867 34.5385 10.9289V26.9451C34.5385 27.4255 34.282 27.8694 33.8658 28.1093L23.457 34.1094Z" fill="black"/>
<path d="M1.72302 1.84614C1.90725 1.15352 2.6703 0.785844 3.33533 1.06099L11.0511 4.2563L11.2133 4.33833C11.5725 4.55481 11.7982 4.94636 11.7982 5.37446V22.0854C11.7982 22.7532 11.257 23.2952 10.5892 23.2954H9.11169C8.91542 23.2954 8.72459 23.2474 8.55408 23.1596L8.39099 23.0581C7.9409 22.7289 7.37159 22.3286 6.85876 21.6958C6.40435 21.1349 6.00641 20.4091 5.72888 19.4047L5.61658 18.9575C5.58521 18.8165 5.60123 18.6777 5.65173 18.5561C3.90158 17.4248 1.23042 14.8459 1.51013 10.8002L1.52966 10.6538C1.66501 9.95493 2.39499 9.58615 3.03748 9.7895C2.65045 9.26585 2.258 8.58143 1.96912 7.67329C1.53606 6.31178 1.34227 4.48163 1.6947 1.9897L1.72302 1.84614Z" fill="white" stroke="black" stroke-width="1.07503" stroke-linejoin="round"/>
<path d="M43.8167 1.84614C43.6324 1.15352 42.8694 0.785844 42.2043 1.06099L34.4885 4.2563L34.3264 4.33833C33.9671 4.55481 33.7415 4.94636 33.7415 5.37446V22.0854C33.7415 22.7532 34.2827 23.2952 34.9504 23.2954H36.428C36.6243 23.2954 36.8151 23.2474 36.9856 23.1596L37.1487 23.0581C37.5988 22.7289 38.1681 22.3286 38.6809 21.6958C39.1353 21.1349 39.5333 20.4091 39.8108 19.4047L39.9231 18.9575C39.9545 18.8165 39.9384 18.6777 39.8879 18.5561C41.6381 17.4248 44.3093 14.8459 44.0295 10.8002L44.01 10.6538C43.8747 9.95493 43.1447 9.58615 42.5022 9.7895C42.8892 9.26585 43.2817 8.58143 43.5706 7.67329C44.0036 6.31178 44.1974 4.48163 43.845 1.9897L43.8167 1.84614Z" fill="white" stroke="black" stroke-width="1.07503" stroke-linejoin="round"/>
<path d="M9.18689 3.07063C9.18694 2.85686 9.27108 2.65149 9.42224 2.50032C9.57341 2.34916 9.77878 2.26501 9.99255 2.26497L35.5756 2.26497C36.0208 2.26497 36.3821 2.62542 36.3822 3.07063V22.8109C36.382 23.0989 36.2275 23.3652 35.9779 23.5091L23.1869 30.8822L23.0912 30.93C22.8621 31.0243 22.5993 31.0079 22.3812 30.8822L9.59021 23.5091C9.34062 23.3652 9.18706 23.0989 9.18689 22.8109L9.18689 3.07063Z" fill="#AD0025" stroke="black" stroke-width="1.61255" stroke-linejoin="round"/>
<path d="M22.7842 27.4793L9.99275 20.4492L9.9927 3.07036L35.5756 3.07036V20.4492L22.7842 27.4793Z" fill="#EE1B39"/>
<mask id="mask0_0_573" style="mask-type:alpha" maskUnits="userSpaceOnUse" x="9" y="3" width="27" height="25">
<path d="M22.7845 27.4792L9.99311 20.4491L9.99306 3.07027L35.5759 3.07027V20.4491L22.7845 27.4792Z" fill="#EE1B39"/>
</mask>
<g mask="url(#mask0_0_573)">
<rect x="22.7863" y="-0.247643" width="16.9155" height="28.557" fill="#CA0C2E"/>
</g>
<path d="M22.7859 23.2858L14.7362 18.6456L14.7362 6.22345L30.8356 6.22345L30.8356 18.6456L22.7859 23.2858Z" fill="#AD0025"/>
</svg>
