<svg width="38" height="35" viewBox="0 0 38 35" fill="none" xmlns="http://www.w3.org/2000/svg">
<g filter="url(#filter0_d_2001_88)">
<mask id="path-1-outside-1_2001_88" maskUnits="userSpaceOnUse" x="-0.43271" y="-1.07774" width="40.0828" height="35.4007" fill="black">
<rect fill="white" x="-0.43271" y="-1.07774" width="40.0828" height="35.4007"/>
<path d="M30.7908 1.589C31.5944 1.4255 32.379 1.94447 32.5427 2.7481L34.1144 10.4666C34.42 11.9677 33.9383 13.4456 32.9544 14.475L35.0589 24.8098C35.281 25.9006 34.5769 26.9649 33.486 27.1871L9.01364 32.1705C7.92282 32.3926 6.85848 31.6884 6.63635 30.5976L2.32834 9.44191C2.10626 8.35112 2.81048 7.2868 3.90124 7.06462L30.7908 1.589Z"/>
</mask>
<path d="M30.7908 1.589C31.5944 1.4255 32.379 1.94447 32.5427 2.7481L34.1144 10.4666C34.42 11.9677 33.9383 13.4456 32.9544 14.475L35.0589 24.8098C35.281 25.9006 34.5769 26.9649 33.486 27.1871L9.01364 32.1705C7.92282 32.3926 6.85848 31.6884 6.63635 30.5976L2.32834 9.44191C2.10626 8.35112 2.81048 7.2868 3.90124 7.06462L30.7908 1.589Z" fill="black"/>
<path d="M30.7908 1.589L30.5765 0.535553L30.5763 0.535589L30.7908 1.589ZM34.1144 10.4666L35.1678 10.2522L35.1678 10.2521L34.1144 10.4666ZM32.9544 14.475L32.1772 13.7322L31.7888 14.1387L31.901 14.6895L32.9544 14.475ZM9.01364 32.1705L9.2281 33.2239L9.22815 33.2239L9.01364 32.1705ZM2.32834 9.44191L1.27492 9.65639L1.27493 9.65642L2.32834 9.44191ZM3.90124 7.06462L3.68673 6.01121L3.68667 6.01122L3.90124 7.06462ZM30.7908 1.589L31.0051 2.64245C31.2273 2.59726 31.4441 2.74094 31.4892 2.96261L32.5427 2.7481L33.5961 2.53359C33.3139 1.148 31.9616 0.253741 30.5765 0.535553L30.7908 1.589ZM32.5427 2.7481L31.4892 2.96261L33.061 10.6812L34.1144 10.4666L35.1678 10.2521L33.5961 2.53359L32.5427 2.7481ZM34.1144 10.4666L33.061 10.6811C33.2932 11.8217 32.9289 12.9458 32.1772 13.7322L32.9544 14.475L33.7316 15.2178C34.9477 13.9453 35.5468 12.1137 35.1678 10.2522L34.1144 10.4666ZM32.9544 14.475L31.901 14.6895L34.0055 25.0243L35.0589 24.8098L36.1123 24.5953L34.0078 14.2605L32.9544 14.475ZM35.0589 24.8098L34.0055 25.0243C34.1092 25.5334 33.7806 26.03 33.2715 26.1337L33.486 27.1871L33.7005 28.2405C35.3731 27.8999 36.4529 26.2679 36.1123 24.5953L35.0589 24.8098ZM33.486 27.1871L33.2715 26.1337L8.79913 31.1171L9.01364 32.1705L9.22815 33.2239L33.7005 28.2405L33.486 27.1871ZM9.01364 32.1705L8.79917 31.1171C8.29007 31.2207 7.79341 30.8921 7.68976 30.3831L6.63635 30.5976L5.58294 30.8121C5.92355 32.4847 7.55558 33.5644 9.2281 33.2239L9.01364 32.1705ZM6.63635 30.5976L7.68976 30.3831L3.38176 9.2274L2.32834 9.44191L1.27493 9.65642L5.58294 30.8121L6.63635 30.5976ZM2.32834 9.44191L3.38176 9.22743C3.27813 8.71843 3.60676 8.22171 4.1158 8.11803L3.90124 7.06462L3.68667 6.01122C2.0142 6.35189 0.934389 7.98382 1.27492 9.65639L2.32834 9.44191ZM3.90124 7.06462L4.11575 8.11804L31.0053 2.64242L30.7908 1.589L30.5763 0.535589L3.68673 6.01121L3.90124 7.06462Z" fill="black" mask="url(#path-1-outside-1_2001_88)"/>
</g>
<path d="M3.70166 16.1859L32.1243 10.3981L35.0591 24.8099C35.2812 25.9007 34.577 26.9651 33.4861 27.1872L9.01374 32.1706C7.9229 32.3927 6.85852 31.6885 6.63638 30.5977L3.70166 16.1859Z" fill="#5A9ED5"/>
<rect x="7.74121" y="16.7909" width="24.6695" height="10.8113" transform="rotate(-11.51 7.74121 16.7909)" fill="#00B0E5"/>
<rect x="18.2368" y="14.882" width="1.44336" height="10.5876" transform="rotate(-11.51 18.2368 14.882)" fill="#0050BC"/>
<rect x="29.6252" y="12.5629" width="1.44336" height="14.9917" transform="rotate(-11.51 29.6252 12.5629)" fill="#0050BC"/>
<rect x="27.5496" y="12.9856" width="1.44336" height="14.9917" transform="rotate(-11.51 27.5496 12.9856)" fill="#0050BC"/>
<path d="M32.6378 27.3595L23.7471 29.1699L20.7557 14.4802L29.6465 12.6697L32.6378 27.3595ZM22.9756 15.2211C22.6847 15.2803 22.4963 15.5639 22.5555 15.8548L24.0374 23.1322C24.0966 23.4231 24.3809 23.6104 24.6718 23.5511L30.1311 22.4394C30.422 22.3802 30.6104 22.0966 30.5512 21.8058L29.0692 14.5284C29.01 14.2375 28.7257 14.0502 28.4348 14.1094L22.9756 15.2211Z" fill="#0A87FC"/>
<path d="M35.0588 24.8099C35.2585 25.7904 34.7086 26.7463 33.8033 27.0916L30.895 12.8096L20.7459 14.8763L23.6602 29.188L12.2853 31.5043C11.1945 31.7264 10.1301 31.0223 9.90799 29.9314L6.995 15.6264L32.1458 10.5048L35.0588 24.8099ZM9.39006 17.1887C9.09917 17.2479 8.91188 17.5322 8.97112 17.8231L10.7182 26.4029C10.7775 26.6938 11.0609 26.8813 11.3517 26.822L20.9344 24.8707C21.2252 24.8115 21.4127 24.5281 21.3535 24.2372L19.6064 15.6574C19.5471 15.3665 19.2636 15.1781 18.9727 15.2373L9.39006 17.1887Z" fill="#B9EFFC"/>
<path opacity="0.2" d="M26.0096 7.97375C28.6414 7.43784 31.2212 9.19433 31.7716 11.897C32.322 14.5998 31.2864 17.0925 28.0027 17.7612C26.0475 18.1592 24.5732 17.6505 23.5841 16.603C23.0831 17.9535 21.9262 18.9985 19.9712 19.3966C17.9474 19.8086 16.4395 19.2486 15.4509 18.1256C14.98 19.5455 13.8122 20.6508 11.7886 21.0629C8.50485 21.7316 6.57693 19.8424 6.02655 17.1396C5.47626 14.4369 7.16378 11.8114 9.79551 11.2755C11.5339 10.9216 13.2489 11.5685 14.372 12.8271C14.9132 11.2294 16.2397 9.96341 17.9782 9.60923C19.6656 9.26561 21.3312 9.86518 22.4546 11.0516C23.0246 9.5205 24.3224 8.31747 26.0096 7.97375Z" fill="#1941A7"/>
<path d="M16.1456 13.2685C16.7339 16.1578 15.5844 18.8311 11.9795 19.5652C8.37459 20.2993 6.27118 18.2883 5.68284 15.3991C5.0945 12.5099 6.95972 9.69079 9.84894 9.10245C12.7381 8.51411 15.5573 10.3793 16.1456 13.2685Z" fill="#9B0B53"/>
<path d="M25.1292 11.4392C25.7176 14.3284 24.5681 17.0017 20.9631 17.7358C17.3582 18.4699 15.2548 16.4589 14.6665 13.5697C14.0781 10.6805 15.9434 7.8614 18.8326 7.27306C21.7218 6.68472 24.5409 8.54995 25.1292 11.4392Z" fill="#9B0B53"/>
<path d="M33.9464 9.64371C34.5347 12.5329 33.3852 15.2063 29.7803 15.9404C26.1754 16.6745 24.072 14.6635 23.4836 11.7743C22.8953 8.88507 24.7605 6.06595 27.6497 5.47761C30.5389 4.88927 33.358 6.75449 33.9464 9.64371Z" fill="#9B0B53"/>
<path d="M3.85095 16.9189L32.2736 11.131L30.7511 3.65415C30.5289 2.5633 29.4646 1.85907 28.3737 2.08121L3.90135 7.06461C2.8105 7.28674 2.10627 8.35112 2.3284 9.44197L3.85095 16.9189Z" fill="#9B0B53"/>
<path d="M14.4449 4.91756L23.4287 3.08817L25.2798 12.1787C25.785 14.6595 24.1834 17.0801 21.7026 17.5852V17.5852C19.2219 18.0904 16.8013 16.4888 16.2961 14.0081L14.4449 4.91756Z" fill="#D7FAFF"/>
<path d="M23.4287 3.08817L30.7905 1.58906C31.5942 1.42539 32.3784 1.94426 32.5421 2.74797L34.1139 10.4666C34.6097 12.9013 33.0378 15.277 30.6031 15.7728V15.7728C28.1683 16.2686 25.7926 14.6968 25.2968 12.262L23.4287 3.08817Z" fill="#E45340"/>
<path d="M5.19788 6.80058L14.445 4.91756L16.2693 13.8764C16.7893 16.4299 15.1408 18.9215 12.5873 19.4414V19.4414C10.0337 19.9614 7.54218 18.3129 7.02219 15.7594L5.19788 6.80058Z" fill="#E45340"/>
<defs>
<filter id="filter0_d_2001_88" x="0.540263" y="0.483662" width="35.6348" height="34.1468" filterUnits="userSpaceOnUse" color-interpolation-filters="sRGB">
<feFlood flood-opacity="0" result="BackgroundImageFix"/>
<feColorMatrix in="SourceAlpha" type="matrix" values="0 0 0 0 0 0 0 0 0 0 0 0 0 0 0 0 0 0 127 0" result="hardAlpha"/>
<feOffset dx="-0.671895" dy="1.34379"/>
<feComposite in2="hardAlpha" operator="out"/>
<feColorMatrix type="matrix" values="0 0 0 0 0 0 0 0 0 0 0 0 0 0 0 0 0 0 1 0"/>
<feBlend mode="normal" in2="BackgroundImageFix" result="effect1_dropShadow_2001_88"/>
<feBlend mode="normal" in="SourceGraphic" in2="effect1_dropShadow_2001_88" result="shape"/>
</filter>
</defs>
</svg>
