<svg width="19" height="22" viewBox="0 0 19 22" fill="none" xmlns="http://www.w3.org/2000/svg">
<mask id="mask0_0_475" style="mask-type:alpha" maskUnits="userSpaceOnUse" x="1" y="1" width="17" height="20">
<path d="M9.59433 1.52307L6.25523 5.01486L1.56171 6.16071L2.91614 10.7983L1.56171 15.436L6.25523 16.5818L9.59433 20.0736L12.9334 16.5818L17.627 15.436L16.2725 10.7983L17.627 6.16071L12.9334 5.01486L9.59433 1.52307Z" fill="#D9D9D9"/>
</mask>
<g mask="url(#mask0_0_475)">
<path d="M23.809 8.0625L4.85428 -2.88099L0.0498255 5.44058L19.0045 16.3841L23.809 8.0625Z" fill="#FFE25B"/>
<path d="M9.52681 10.9122L9.52681 -0.183178L19.1357 5.36453L9.52681 10.9122Z" fill="white"/>
<path d="M-4.75558 13.7621L14.1991 24.7056L19.0035 16.384L0.0488727 5.44052L-4.75558 13.7621Z" fill="#FFBE20"/>
<path d="M9.52656 10.9123L9.52656 22.0077L-0.0823504 16.46L9.52656 10.9123Z" fill="#EF7527"/>
</g>
<path fill-rule="evenodd" clip-rule="evenodd" d="M5.73475 4.11157L8.77536 0.931922C9.2221 0.464751 9.96833 0.464749 10.4151 0.931922L13.4557 4.11157L17.7296 5.15499C18.3576 5.3083 18.7307 5.95455 18.5495 6.57503L17.3162 10.7981L18.5495 15.0212C18.7307 15.6417 18.3576 16.2879 17.7296 16.4412L13.4557 17.4846L10.4151 20.6643C9.96833 21.1315 9.2221 21.1315 8.77536 20.6643L5.73475 17.4846L1.46078 16.4412C0.83283 16.2879 0.459715 15.6417 0.640926 15.0212L1.87428 10.7981L0.640926 6.57503C0.459717 5.95455 0.832827 5.3083 1.46078 5.15499L5.73475 4.11157ZM9.49876 1.62369C9.55132 1.56873 9.63911 1.56873 9.69167 1.62369L12.9074 4.98644C12.925 5.00484 12.9475 5.01782 12.9722 5.02386L17.4923 6.12737C17.5661 6.1454 17.61 6.22143 17.5887 6.29443L16.2843 10.7607C16.2772 10.7851 16.2772 10.8111 16.2843 10.8355L17.5887 15.3018C17.61 15.3748 17.5661 15.4508 17.4923 15.4688L12.9722 16.5723C12.9475 16.5784 12.925 16.5914 12.9074 16.6098L9.69167 19.9725C9.63911 20.0275 9.55132 20.0275 9.49876 19.9725L6.28306 16.6098C6.26546 16.5914 6.24298 16.5784 6.21825 16.5723L1.69817 15.4688C1.62429 15.4508 1.5804 15.3748 1.60172 15.3018L2.90609 10.8355C2.91323 10.8111 2.91323 10.7851 2.90609 10.7607L1.60172 6.29443C1.5804 6.22143 1.62429 6.1454 1.69817 6.12737L6.21825 5.02386C6.24298 5.01782 6.26546 5.00484 6.28306 4.98644L9.49876 1.62369Z" fill="#581B1F"/>
</svg>
